<?xml version="1.0" standalone="no"?>
<!DOCTYPE svg PUBLIC "-//W3C//DTD SVG 20010904//EN"
 "http://www.w3.org/TR/2001/REC-SVG-20010904/DTD/svg10.dtd">
<svg version="1.0" xmlns="http://www.w3.org/2000/svg"
 width="32.000000pt" height="32.000000pt" viewBox="0 0 32.000000 32.000000"
 preserveAspectRatio="xMidYMid meet">

<g transform="translate(0.000000,32.000000) scale(0.100000,-0.100000)"
fill="#000000" stroke="none">
<path d="M125 310 c-75 -23 -102 -88 -47 -113 26 -12 24 -13 74 55 l16 23 30
-29 c32 -30 57 -30 68 -1 16 41 -77 84 -141 65z"/>
<path d="M20 190 c-12 -8 -12 -14 3 -45 9 -20 21 -34 26 -31 16 10 22 57 10
72 -13 16 -19 17 -39 4z"/>
</g>
</svg>
