<?xml version="1.0" standalone="no"?>
<!DOCTYPE svg PUBLIC "-//W3C//DTD SVG 20010904//EN"
 "http://www.w3.org/TR/2001/REC-SVG-20010904/DTD/svg10.dtd">
<svg version="1.0" xmlns="http://www.w3.org/2000/svg"
 width="252.000000pt" height="120.000000pt" viewBox="0 0 252.000000 120.000000"
 preserveAspectRatio="xMidYMid meet">

<g transform="translate(0.000000,120.000000) scale(0.100000,-0.100000)"
fill="#000000" stroke="none">
<path d="M648 1180 c-143 -23 -297 -94 -393 -182 l-57 -52 4 -52 c6 -69 43
-118 115 -151 60 -28 160 -33 207 -12 14 7 60 56 101 109 41 53 100 115 131
138 68 50 65 51 184 -63 54 -52 97 -85 116 -89 69 -15 171 31 199 91 35 73 10
112 -112 176 -143 75 -346 111 -495 87z"/>
<path d="M101 735 c-60 -27 -61 -30 -44 -88 30 -103 90 -189 155 -223 l26 -14
-15 31 c-21 42 -12 113 18 145 12 13 41 30 63 36 23 6 42 13 44 14 2 1 -4 16
-12 33 -32 62 -163 99 -235 66z"/>
<path d="M1510 576 c0 -160 6 -176 61 -176 31 0 41 23 14 34 -12 4 -15 30 -15
146 l0 140 -30 0 -30 0 0 -144z"/>
<path d="M2440 660 l0 -61 -32 17 c-46 24 -116 14 -145 -21 -18 -21 -23 -38
-23 -83 0 -71 17 -98 72 -112 32 -9 50 -8 87 4 29 9 50 11 56 5 5 -5 17 -9 27
-9 17 0 18 13 18 160 l0 160 -30 0 -30 0 0 -60z m-17 -91 c24 -29 22 -94 -3
-119 -24 -24 -91 -27 -110 -5 -7 8 -12 38 -12 67 0 42 4 55 23 71 29 23 76 17
102 -14z"/>
<path d="M1683 615 c-41 -18 -53 -42 -53 -109 0 -42 5 -61 19 -75 46 -46 164
-49 207 -6 49 49 40 145 -16 183 -38 26 -107 29 -157 7z m135 -56 c16 -30 9
-85 -14 -110 -21 -23 -71 -25 -96 -2 -19 17 -26 96 -10 120 24 37 99 32 120
-8z"/>
<path d="M1940 545 c0 -41 5 -85 11 -98 20 -44 90 -65 144 -43 20 9 37 11 40
5 4 -5 15 -9 26 -9 18 0 19 8 19 110 l0 110 -30 0 -30 0 0 -73 c0 -85 -16
-117 -59 -117 -44 0 -56 23 -56 111 l0 79 -32 0 -33 0 0 -75z"/>
<path d="M306 564 c-9 -8 -16 -23 -16 -31 0 -9 1 -14 3 -12 15 21 37 59 33 59
-3 0 -12 -7 -20 -16z"/>
</g>
</svg>
