<?xml version="1.0" standalone="no"?>
<!DOCTYPE svg PUBLIC "-//W3C//DTD SVG 20010904//EN"
 "http://www.w3.org/TR/2001/REC-SVG-20010904/DTD/svg10.dtd">
<svg version="1.0" xmlns="http://www.w3.org/2000/svg"
 width="512.000000pt" height="440.000000pt" viewBox="0 0 512.000000 440.000000"
 preserveAspectRatio="xMidYMid meet">

<g transform="translate(0.000000,440.000000) scale(0.100000,-0.100000)"
fill="#000000" stroke="none">
<path d="M1455 3431 c-334 -33 -655 -177 -880 -396 l-85 -83 0 -74 c0 -106 29
-175 103 -250 89 -89 226 -138 382 -138 148 0 175 19 330 225 62 83 142 179
177 214 68 69 192 161 216 161 29 0 160 -109 263 -219 57 -62 119 -122 138
-133 102 -64 301 -25 408 80 58 56 76 100 77 183 0 65 -2 71 -34 105 -110 113
-411 252 -655 302 -114 24 -320 34 -440 23z"/>
<path d="M340 2546 c-25 -7 -67 -23 -95 -37 -42 -20 -50 -28 -48 -49 2 -14 4
-42 6 -62 2 -21 6 -40 10 -44 4 -4 7 -18 7 -31 0 -13 4 -31 9 -41 5 -9 16 -33
24 -52 36 -87 42 -100 49 -100 5 0 8 -5 8 -10 0 -12 43 -72 84 -117 27 -30
154 -123 168 -123 4 0 -4 20 -18 46 -20 37 -24 59 -24 128 0 157 64 238 199
252 68 8 73 16 47 79 -52 123 -269 205 -426 161z"/>
<path d="M3050 2230 c0 -305 4 -330 62 -354 30 -13 74 -20 106 -17 14 1 17 61
2 61 -5 0 -19 9 -30 20 -19 19 -20 33 -20 290 l0 270 -60 0 -60 0 0 -270z"/>
<path d="M4880 2383 c2 -129 1 -130 -54 -90 -26 19 -45 22 -116 22 -106 0
-161 -26 -199 -93 -46 -84 -37 -239 16 -303 43 -50 92 -69 182 -69 80 0 113 8
163 42 27 18 27 18 40 -9 7 -16 17 -27 21 -25 4 1 21 2 37 2 l30 0 0 320 0
320 -61 0 -60 0 1 -117z m-75 -147 c49 -21 67 -56 72 -139 7 -122 -39 -180
-146 -181 -50 -1 -64 3 -85 23 -60 56 -63 220 -6 281 24 26 35 30 79 30 29 0
67 -6 86 -14z"/>
<path d="M3428 2306 c-58 -21 -85 -42 -113 -90 -23 -39 -26 -57 -26 -128 0
-93 14 -139 58 -180 46 -43 96 -58 197 -58 178 0 256 72 256 234 -1 158 -87
237 -260 236 -41 -1 -92 -7 -112 -14z m175 -70 c56 -23 72 -58 72 -158 0 -85
-1 -89 -32 -119 -60 -60 -183 -47 -219 24 -12 22 -15 52 -12 113 3 71 6 86 28
109 43 46 101 57 163 31z"/>
<path d="M3910 2145 c0 -206 7 -224 102 -275 26 -14 57 -20 103 -20 68 0 94 8
132 42 21 20 21 20 35 -8 9 -20 21 -29 38 -29 60 0 59 -5 57 232 l-2 218 -60
0 -60 0 -5 -160 c-6 -185 -14 -207 -80 -225 -31 -8 -47 -7 -74 4 -54 23 -60
43 -66 221 l-5 160 -57 3 -58 3 0 -166z"/>
<path d="M706 2198 c-20 -17 -29 -36 -32 -68 l-5 -45 35 64 c20 36 34 66 32
68 -2 2 -16 -6 -30 -19z"/>
</g>
</svg>
